# xmcd CD database file
#
# Track frame offsets:
#	150
#	12004
#	23437
#	34239
#	48651
#	62250
#	76941
#	90893
#	103946
#	117443
#	131669
#	145649
#	158126
#	169701
#	181806
#	193595
#	207671
#	221722
#	236879
#	250442
#
# Disc length: 3491 seconds
#
# Revision: 0
# Processed by: cddbd v1.4PL0 Copyright (c) Steve Scherf et al.
# Submitted via: NeoAudio 9.9.9
#
DISCID=0f0da114
DTITLE=Nat King Cole - The Golden Years Of Nat King Cole And His Trio CD 2
DYEAR=1900
DGENRE=Jazz
TTITLE0=Too Young
TTITLE1=The Best Man
TTITLE2=Don't Blame Me
TTITLE3=It's Only A Paper Moon
TTITLE4=What Is This Thing Called Love
TTITLE5=Shoo Shoo Baby
TTITLE6=This Will Make You Love
TTITLE7=Beautiful Moons Ago
TTITLE8=I Thought You Ought To Know
TTITLE9=There Will Never Be Another You
TTITLE10=My Funny Valentine
TTITLE11=I Realise Now
TTITLE12=I Want To Thank You Folks
TTITLE13=I Got Rhythm
TTITLE14=Just You, Just You
TTITLE15=I'm A Shy Guy
TTITLE16=You Must Be Blind
TTITLE17=Besame Mucho
TTITLE18=The Christmas Song
TTITLE19=Nature Boy
EXTD=
EXTT0=
EXTT1=
EXTT2=
EXTT3=
EXTT4=
EXTT5=
EXTT6=
EXTT7=
EXTT8=
EXTT9=
EXTT10=
EXTT11=
EXTT12=
EXTT13=
EXTT14=
EXTT15=
EXTT16=
EXTT17=
EXTT18=
EXTT19=
PLAYORDER=
